<mxfile host="app.diagrams.net" modified="2024-06-11T11:33:08.185Z" agent="Mozilla/5.0 (Windows NT 10.0; Win64; x64) AppleWebKit/537.36 (KHTML, like Gecko) Chrome/125.0.0.0 Safari/537.36 Edg/125.0.0.0" etag="CddJj-TyC3CNbz2lAMEK" version="24.4.15" type="device">
  <diagram name="Page-1" id="EY1MAFZuyhNo7XrZB8Aw">
    <mxGraphModel dx="1035" dy="532" grid="1" gridSize="10" guides="1" tooltips="1" connect="1" arrows="1" fold="1" page="1" pageScale="1" pageWidth="1000" pageHeight="1000" math="0" shadow="0">
      <root>
        <mxCell id="0" />
        <mxCell id="1" parent="0" />
        <mxCell id="_TswHYcR5eJmgxJztcxw-14" value="" style="rounded=0;whiteSpace=wrap;html=1;backgroundOutline=0;fontSize=11;" parent="1" vertex="1">
          <mxGeometry x="73" y="198" width="670" height="780" as="geometry" />
        </mxCell>
        <mxCell id="u87Ltixw-DFZqbEDM121-87" style="rounded=0;orthogonalLoop=1;jettySize=auto;html=1;entryX=0;entryY=0.5;entryDx=0;entryDy=0;fontSize=11;" parent="1" source="u87Ltixw-DFZqbEDM121-77" target="u87Ltixw-DFZqbEDM121-84" edge="1">
          <mxGeometry relative="1" as="geometry" />
        </mxCell>
        <mxCell id="u87Ltixw-DFZqbEDM121-88" style="rounded=0;orthogonalLoop=1;jettySize=auto;html=1;entryX=0;entryY=0.5;entryDx=0;entryDy=0;strokeColor=default;fontSize=11;" parent="1" source="u87Ltixw-DFZqbEDM121-77" target="u87Ltixw-DFZqbEDM121-85" edge="1">
          <mxGeometry relative="1" as="geometry" />
        </mxCell>
        <mxCell id="u87Ltixw-DFZqbEDM121-93" style="rounded=0;orthogonalLoop=1;jettySize=auto;html=1;entryX=0;entryY=0.5;entryDx=0;entryDy=0;fontSize=11;" parent="1" source="u87Ltixw-DFZqbEDM121-77" target="u87Ltixw-DFZqbEDM121-91" edge="1">
          <mxGeometry relative="1" as="geometry" />
        </mxCell>
        <mxCell id="u87Ltixw-DFZqbEDM121-96" style="rounded=0;orthogonalLoop=1;jettySize=auto;html=1;entryX=0.036;entryY=0.341;entryDx=0;entryDy=0;fontSize=11;entryPerimeter=0;" parent="1" source="u87Ltixw-DFZqbEDM121-77" target="u87Ltixw-DFZqbEDM121-95" edge="1">
          <mxGeometry relative="1" as="geometry">
            <Array as="points" />
          </mxGeometry>
        </mxCell>
        <mxCell id="u87Ltixw-DFZqbEDM121-112" style="rounded=0;orthogonalLoop=1;jettySize=auto;html=1;entryX=0;entryY=0.5;entryDx=0;entryDy=0;fontSize=11;" parent="1" source="u87Ltixw-DFZqbEDM121-77" target="u87Ltixw-DFZqbEDM121-111" edge="1">
          <mxGeometry relative="1" as="geometry" />
        </mxCell>
        <mxCell id="u87Ltixw-DFZqbEDM121-77" value="Toptancı" style="shape=umlActor;verticalLabelPosition=bottom;verticalAlign=top;html=1;fontSize=11;" parent="1" vertex="1">
          <mxGeometry x="23" y="468" width="20" height="40" as="geometry" />
        </mxCell>
        <mxCell id="u87Ltixw-DFZqbEDM121-83" value="Ürün Arar" style="ellipse;whiteSpace=wrap;html=1;fontSize=11;" parent="1" vertex="1">
          <mxGeometry x="573" y="498" width="140" height="70" as="geometry" />
        </mxCell>
        <mxCell id="u87Ltixw-DFZqbEDM121-84" value="&amp;nbsp;Kendi Ürünlerini Görüntüler" style="ellipse;whiteSpace=wrap;html=1;fontSize=11;" parent="1" vertex="1">
          <mxGeometry x="133" y="378" width="120" height="60" as="geometry" />
        </mxCell>
        <mxCell id="u87Ltixw-DFZqbEDM121-85" value="Profilini Görüntüler" style="ellipse;whiteSpace=wrap;html=1;fontSize=11;" parent="1" vertex="1">
          <mxGeometry x="223" y="448" width="140" height="70" as="geometry" />
        </mxCell>
        <mxCell id="u87Ltixw-DFZqbEDM121-97" style="rounded=0;orthogonalLoop=1;jettySize=auto;html=1;entryX=0;entryY=0.5;entryDx=0;entryDy=0;fontSize=11;" parent="1" source="u87Ltixw-DFZqbEDM121-89" target="u87Ltixw-DFZqbEDM121-92" edge="1">
          <mxGeometry relative="1" as="geometry" />
        </mxCell>
        <mxCell id="u87Ltixw-DFZqbEDM121-109" style="rounded=0;orthogonalLoop=1;jettySize=auto;html=1;entryX=0.5;entryY=1;entryDx=0;entryDy=0;fontSize=11;" parent="1" source="u87Ltixw-DFZqbEDM121-89" target="u87Ltixw-DFZqbEDM121-105" edge="1">
          <mxGeometry relative="1" as="geometry" />
        </mxCell>
        <mxCell id="u87Ltixw-DFZqbEDM121-110" style="rounded=0;orthogonalLoop=1;jettySize=auto;html=1;entryX=0;entryY=0.5;entryDx=0;entryDy=0;fontSize=11;" parent="1" source="u87Ltixw-DFZqbEDM121-89" target="u87Ltixw-DFZqbEDM121-106" edge="1">
          <mxGeometry relative="1" as="geometry" />
        </mxCell>
        <mxCell id="u87Ltixw-DFZqbEDM121-89" value="Admin" style="shape=umlActor;verticalLabelPosition=bottom;verticalAlign=top;html=1;fontSize=11;" parent="1" vertex="1">
          <mxGeometry x="43" y="903" width="20" height="40" as="geometry" />
        </mxCell>
        <mxCell id="u87Ltixw-DFZqbEDM121-91" value="Kayıt Olur" style="ellipse;whiteSpace=wrap;html=1;fontSize=11;" parent="1" vertex="1">
          <mxGeometry x="123" y="698" width="140" height="70" as="geometry" />
        </mxCell>
        <mxCell id="u87Ltixw-DFZqbEDM121-92" value="Giriş Yapar" style="ellipse;whiteSpace=wrap;html=1;fontSize=11;" parent="1" vertex="1">
          <mxGeometry x="433" y="748" width="140" height="70" as="geometry" />
        </mxCell>
        <mxCell id="u87Ltixw-DFZqbEDM121-95" value="Sohbetlerini Açar&amp;nbsp;" style="ellipse;whiteSpace=wrap;html=1;fontSize=11;" parent="1" vertex="1">
          <mxGeometry x="353" y="622" width="140" height="70" as="geometry" />
        </mxCell>
        <mxCell id="u87Ltixw-DFZqbEDM121-98" value="Profilini Günceller" style="ellipse;whiteSpace=wrap;html=1;fontSize=11;" parent="1" vertex="1">
          <mxGeometry x="293" y="348" width="140" height="70" as="geometry" />
        </mxCell>
        <mxCell id="u87Ltixw-DFZqbEDM121-100" value="&amp;nbsp;Kendi Ürünlerini Siler" style="ellipse;whiteSpace=wrap;html=1;fontSize=11;" parent="1" vertex="1">
          <mxGeometry x="243" y="208" width="140" height="70" as="geometry" />
        </mxCell>
        <mxCell id="u87Ltixw-DFZqbEDM121-104" value="Mesajlaşır" style="ellipse;whiteSpace=wrap;html=1;fontSize=11;" parent="1" vertex="1">
          <mxGeometry x="113" y="608" width="140" height="70" as="geometry" />
        </mxCell>
        <mxCell id="u87Ltixw-DFZqbEDM121-105" value="Ürün Arar" style="ellipse;whiteSpace=wrap;html=1;fontSize=11;" parent="1" vertex="1">
          <mxGeometry x="93" y="778" width="140" height="70" as="geometry" />
        </mxCell>
        <mxCell id="u87Ltixw-DFZqbEDM121-106" value="&amp;nbsp;Tüm Ürünlerini Görüntüler" style="ellipse;whiteSpace=wrap;html=1;fontSize=11;" parent="1" vertex="1">
          <mxGeometry x="183" y="873" width="140" height="70" as="geometry" />
        </mxCell>
        <mxCell id="u87Ltixw-DFZqbEDM121-107" value="&amp;nbsp;Ürün Siler" style="ellipse;whiteSpace=wrap;html=1;fontSize=11;" parent="1" vertex="1">
          <mxGeometry x="459" y="823" width="140" height="70" as="geometry" />
        </mxCell>
        <mxCell id="u87Ltixw-DFZqbEDM121-111" value="Kendi İstatistiklerini Görüntüler" style="ellipse;whiteSpace=wrap;html=1;fontSize=11;" parent="1" vertex="1">
          <mxGeometry x="303" y="528" width="140" height="70" as="geometry" />
        </mxCell>
        <mxCell id="Ygg76yo1lvIjKc2-hMDk-2" style="rounded=0;orthogonalLoop=1;jettySize=auto;html=1;entryX=1;entryY=0.5;entryDx=0;entryDy=0;fontSize=11;" parent="1" source="Ygg76yo1lvIjKc2-hMDk-1" target="u87Ltixw-DFZqbEDM121-95" edge="1">
          <mxGeometry relative="1" as="geometry" />
        </mxCell>
        <mxCell id="Ygg76yo1lvIjKc2-hMDk-3" style="rounded=0;orthogonalLoop=1;jettySize=auto;html=1;entryX=1;entryY=0.5;entryDx=0;entryDy=0;fontSize=11;" parent="1" source="Ygg76yo1lvIjKc2-hMDk-1" target="u87Ltixw-DFZqbEDM121-91" edge="1">
          <mxGeometry relative="1" as="geometry" />
        </mxCell>
        <mxCell id="Ygg76yo1lvIjKc2-hMDk-5" style="rounded=0;orthogonalLoop=1;jettySize=auto;html=1;entryX=1;entryY=0.5;entryDx=0;entryDy=0;fontSize=11;" parent="1" source="Ygg76yo1lvIjKc2-hMDk-1" target="u87Ltixw-DFZqbEDM121-85" edge="1">
          <mxGeometry relative="1" as="geometry" />
        </mxCell>
        <mxCell id="Ygg76yo1lvIjKc2-hMDk-6" style="rounded=0;orthogonalLoop=1;jettySize=auto;html=1;entryX=1;entryY=1;entryDx=0;entryDy=0;fontSize=11;" parent="1" source="Ygg76yo1lvIjKc2-hMDk-1" target="u87Ltixw-DFZqbEDM121-83" edge="1">
          <mxGeometry relative="1" as="geometry" />
        </mxCell>
        <mxCell id="Ygg76yo1lvIjKc2-hMDk-7" style="rounded=0;orthogonalLoop=1;jettySize=auto;html=1;entryX=1;entryY=0.5;entryDx=0;entryDy=0;fontSize=11;" parent="1" source="Ygg76yo1lvIjKc2-hMDk-1" target="u87Ltixw-DFZqbEDM121-111" edge="1">
          <mxGeometry relative="1" as="geometry" />
        </mxCell>
        <mxCell id="Ygg76yo1lvIjKc2-hMDk-1" value="Yabancı Alıcı" style="shape=umlActor;verticalLabelPosition=bottom;verticalAlign=top;html=1;outlineConnect=0;fontSize=11;" parent="1" vertex="1">
          <mxGeometry x="769" y="658" width="20" height="40" as="geometry" />
        </mxCell>
        <mxCell id="1bOm8mAzU-74pZzdPz95-2" value="Ürün Satın Alır" style="ellipse;whiteSpace=wrap;html=1;fontSize=11;" parent="1" vertex="1">
          <mxGeometry x="393" y="418" width="140" height="70" as="geometry" />
        </mxCell>
        <mxCell id="_TswHYcR5eJmgxJztcxw-2" value="Kendi Ürünlerini Ekler" style="ellipse;whiteSpace=wrap;html=1;fontSize=11;" parent="1" vertex="1">
          <mxGeometry x="423" y="208" width="120" height="80" as="geometry" />
        </mxCell>
        <mxCell id="_TswHYcR5eJmgxJztcxw-5" value="&amp;nbsp;Kendi Ürünlerini Günceller" style="ellipse;whiteSpace=wrap;html=1;fontSize=11;" parent="1" vertex="1">
          <mxGeometry x="83" y="218" width="140" height="70" as="geometry" />
        </mxCell>
        <mxCell id="_TswHYcR5eJmgxJztcxw-7" value="Ürün Günceller" style="ellipse;whiteSpace=wrap;html=1;fontSize=11;" parent="1" vertex="1">
          <mxGeometry x="407" y="899" width="140" height="70" as="geometry" />
        </mxCell>
        <mxCell id="_TswHYcR5eJmgxJztcxw-15" value="&amp;lt;&amp;lt;extend&amp;gt;&amp;gt;" style="endArrow=open;endSize=12;dashed=1;html=1;rounded=0;exitX=1;exitY=1;exitDx=0;exitDy=0;entryX=0;entryY=0;entryDx=0;entryDy=0;fontSize=11;" parent="1" source="u87Ltixw-DFZqbEDM121-91" target="u87Ltixw-DFZqbEDM121-92" edge="1">
          <mxGeometry width="160" relative="1" as="geometry">
            <mxPoint x="303" y="748" as="sourcePoint" />
            <mxPoint x="463" y="748" as="targetPoint" />
          </mxGeometry>
        </mxCell>
        <mxCell id="_TswHYcR5eJmgxJztcxw-16" value="&amp;lt;&amp;lt;extend&amp;gt;&amp;gt;" style="endArrow=open;endSize=12;dashed=1;html=1;rounded=0;entryX=0.011;entryY=0.618;entryDx=0;entryDy=0;exitX=0.5;exitY=0;exitDx=0;exitDy=0;entryPerimeter=0;fontSize=11;" parent="1" source="u87Ltixw-DFZqbEDM121-85" target="u87Ltixw-DFZqbEDM121-98" edge="1">
          <mxGeometry width="160" relative="1" as="geometry">
            <mxPoint x="303" y="388" as="sourcePoint" />
            <mxPoint x="463" y="388" as="targetPoint" />
          </mxGeometry>
        </mxCell>
        <mxCell id="_TswHYcR5eJmgxJztcxw-17" value="&amp;lt;&amp;lt;extend&amp;gt;&amp;gt;" style="endArrow=open;endSize=12;dashed=1;html=1;rounded=0;exitX=0;exitY=0;exitDx=0;exitDy=0;entryX=0.5;entryY=1;entryDx=0;entryDy=0;fontSize=11;" parent="1" source="u87Ltixw-DFZqbEDM121-84" target="_TswHYcR5eJmgxJztcxw-5" edge="1">
          <mxGeometry width="160" relative="1" as="geometry">
            <mxPoint x="303" y="388" as="sourcePoint" />
            <mxPoint x="463" y="388" as="targetPoint" />
          </mxGeometry>
        </mxCell>
        <mxCell id="_TswHYcR5eJmgxJztcxw-18" value="&amp;lt;&amp;lt;extend&amp;gt;&amp;gt;" style="endArrow=open;endSize=12;dashed=1;html=1;rounded=0;exitX=0.5;exitY=0;exitDx=0;exitDy=0;entryX=0;entryY=1;entryDx=0;entryDy=0;fontSize=11;" parent="1" source="u87Ltixw-DFZqbEDM121-84" target="u87Ltixw-DFZqbEDM121-100" edge="1">
          <mxGeometry width="160" relative="1" as="geometry">
            <mxPoint x="160" y="397" as="sourcePoint" />
            <mxPoint x="163" y="298" as="targetPoint" />
          </mxGeometry>
        </mxCell>
        <mxCell id="_TswHYcR5eJmgxJztcxw-19" value="&amp;lt;&amp;lt;extend&amp;gt;&amp;gt;" style="endArrow=open;endSize=12;dashed=1;html=1;rounded=0;exitX=1;exitY=0;exitDx=0;exitDy=0;entryX=0;entryY=0.5;entryDx=0;entryDy=0;fontSize=11;" parent="1" source="u87Ltixw-DFZqbEDM121-84" target="_TswHYcR5eJmgxJztcxw-2" edge="1">
          <mxGeometry width="160" relative="1" as="geometry">
            <mxPoint x="170" y="407" as="sourcePoint" />
            <mxPoint x="173" y="308" as="targetPoint" />
          </mxGeometry>
        </mxCell>
        <mxCell id="_TswHYcR5eJmgxJztcxw-20" value="&amp;lt;&amp;lt;extend&amp;gt;&amp;gt;" style="endArrow=open;endSize=12;dashed=1;html=1;rounded=0;exitX=0;exitY=0.5;exitDx=0;exitDy=0;entryX=1;entryY=0.5;entryDx=0;entryDy=0;fontSize=11;" parent="1" source="u87Ltixw-DFZqbEDM121-95" target="u87Ltixw-DFZqbEDM121-104" edge="1">
          <mxGeometry width="160" relative="1" as="geometry">
            <mxPoint x="180" y="417" as="sourcePoint" />
            <mxPoint x="183" y="318" as="targetPoint" />
          </mxGeometry>
        </mxCell>
        <mxCell id="_TswHYcR5eJmgxJztcxw-21" value="&amp;lt;&amp;lt;extend&amp;gt;&amp;gt;" style="endArrow=open;endSize=12;dashed=1;html=1;rounded=0;entryX=1;entryY=1;entryDx=0;entryDy=0;fontSize=11;" parent="1" source="u87Ltixw-DFZqbEDM121-83" target="1bOm8mAzU-74pZzdPz95-2" edge="1">
          <mxGeometry width="160" relative="1" as="geometry">
            <mxPoint x="190" y="427" as="sourcePoint" />
            <mxPoint x="193" y="328" as="targetPoint" />
          </mxGeometry>
        </mxCell>
        <mxCell id="_TswHYcR5eJmgxJztcxw-22" value="&amp;lt;&amp;lt;extend&amp;gt;&amp;gt;" style="endArrow=open;endSize=12;dashed=1;html=1;rounded=0;exitX=1;exitY=0;exitDx=0;exitDy=0;fontSize=11;" parent="1" source="u87Ltixw-DFZqbEDM121-106" target="u87Ltixw-DFZqbEDM121-107" edge="1">
          <mxGeometry width="160" relative="1" as="geometry">
            <mxPoint x="743" y="707.5" as="sourcePoint" />
            <mxPoint x="746" y="608.5" as="targetPoint" />
          </mxGeometry>
        </mxCell>
        <mxCell id="_TswHYcR5eJmgxJztcxw-23" value="&amp;lt;&amp;lt;extend&amp;gt;&amp;gt;" style="endArrow=open;endSize=12;dashed=1;html=1;rounded=0;exitX=1;exitY=0.5;exitDx=0;exitDy=0;entryX=0;entryY=0;entryDx=0;entryDy=0;fontSize=11;" parent="1" source="u87Ltixw-DFZqbEDM121-106" target="_TswHYcR5eJmgxJztcxw-7" edge="1">
          <mxGeometry width="160" relative="1" as="geometry">
            <mxPoint x="313" y="893" as="sourcePoint" />
            <mxPoint x="434" y="884" as="targetPoint" />
          </mxGeometry>
        </mxCell>
        <mxCell id="_TswHYcR5eJmgxJztcxw-26" value="Taksitli Ödeme Yapar" style="ellipse;whiteSpace=wrap;html=1;fontSize=11;" parent="1" vertex="1">
          <mxGeometry x="459" y="298" width="140" height="70" as="geometry" />
        </mxCell>
        <mxCell id="_TswHYcR5eJmgxJztcxw-27" value="Peşin Ödeme Yapar" style="ellipse;whiteSpace=wrap;html=1;fontSize=11;" parent="1" vertex="1">
          <mxGeometry x="583" y="358" width="140" height="70" as="geometry" />
        </mxCell>
        <mxCell id="_TswHYcR5eJmgxJztcxw-28" value="" style="endArrow=block;endSize=16;endFill=0;html=1;rounded=0;entryX=0;entryY=1;entryDx=0;entryDy=0;exitX=0.5;exitY=0;exitDx=0;exitDy=0;fontSize=11;" parent="1" source="1bOm8mAzU-74pZzdPz95-2" target="_TswHYcR5eJmgxJztcxw-26" edge="1">
          <mxGeometry width="160" relative="1" as="geometry">
            <mxPoint x="303" y="378" as="sourcePoint" />
            <mxPoint x="463" y="378" as="targetPoint" />
          </mxGeometry>
        </mxCell>
        <mxCell id="_TswHYcR5eJmgxJztcxw-29" value="" style="endArrow=block;endSize=16;endFill=0;html=1;rounded=0;entryX=0;entryY=0.5;entryDx=0;entryDy=0;exitX=1;exitY=0;exitDx=0;exitDy=0;fontSize=11;" parent="1" source="1bOm8mAzU-74pZzdPz95-2" target="_TswHYcR5eJmgxJztcxw-27" edge="1">
          <mxGeometry width="160" relative="1" as="geometry">
            <mxPoint x="473" y="428" as="sourcePoint" />
            <mxPoint x="489" y="378" as="targetPoint" />
          </mxGeometry>
        </mxCell>
      </root>
    </mxGraphModel>
  </diagram>
</mxfile>
